<svg width="123" height="31" viewBox="0 0 123 31" fill="none" xmlns="http://www.w3.org/2000/svg">
<path d="M6.38627 0.13305L4.92275 7.58369H25.9442C27.4077 7.58369 28.6052 8.91417 28.3391 10.5107L26.2103 20.7554C25.8112 22.3519 24.4807 23.5494 22.8841 23.5494H9.97854L12.3734 12.5064H3.85837L0 31H23.6824C28.8712 31 33.2618 27.4077 34.3262 22.3519L37.3863 8.11588C38.3176 3.85837 35.1245 0 29.8026 0H6.38627V0.13305Z" fill="#2F318B"/>
<path d="M50.9573 0.133057H42.3092L40.8457 7.5837H49.4938L50.9573 0.133057Z" fill="#2F318B"/>
<path d="M36.0557 31H44.4376L48.4291 12.5064H39.781L36.0557 31Z" fill="#2F318B"/>
<path d="M48.0303 31H56.9444L59.4723 18.7596H74.7728L75.9702 12.5064H51.8886L48.0303 31Z" fill="#2F318B"/>
<path d="M78.4974 0.133057H54.4159L52.8193 7.5837H77.0339L78.4974 0.133057Z" fill="#2F318B"/>
<path d="M78.7637 0.133057H87.4117L85.8152 7.5837L78.7637 0.133057Z" fill="#2F318B"/>
<path d="M85.283 12.3734L75.9697 18.7597H83.6865L85.283 12.3734Z" fill="#E62129"/>
<path d="M62.5326 22.3519L60.6699 30.8669H67.0562L67.5884 29.2704H62.9317L63.1978 27.4077H66.657L67.0562 25.9442H63.73L63.9961 24.0815H68.5197L68.9189 22.3519H62.5326Z" fill="#2F318B"/>
<path d="M98.056 22.3519L96.1934 30.8669H102.58L102.979 29.2704H98.3221L98.7213 27.4077H102.047L102.447 25.9442H99.1204L99.3865 24.0815H103.91L104.309 22.3519H98.056Z" fill="#2F318B"/>
<path d="M70.515 22.3519L72.5107 26.6094L68.6523 30.8669H70.7811L73.442 27.4077L74.6395 30.8669H76.6352L74.9056 26.6094L78.6309 22.3519H76.3691L73.9742 25.545L72.7768 22.3519H70.515Z" fill="#2F318B"/>
<path d="M85.6828 22.3519H80.2279L78.3652 30.8669H80.2279L80.7601 28.0729H84.2193C84.7515 28.0729 85.2837 27.8068 85.5498 27.4077C85.6828 27.1416 85.8159 27.0086 85.9489 26.7425L86.6142 23.6824C86.6142 23.4163 86.6142 23.1502 86.4811 22.8841C86.4811 22.4849 86.082 22.3519 85.6828 22.3519ZM84.2193 26.6094H81.0262L81.6914 23.8154H84.8846L84.2193 26.6094Z" fill="#2F318B"/>
<path d="M113.356 22.3519H107.502C107.236 22.3519 106.97 22.4849 106.704 22.751C106.305 23.1502 106.172 23.6824 106.039 24.2146L105.773 26.0772C105.773 26.4764 105.906 26.8755 106.172 27.0086C106.305 27.1416 106.571 27.2746 106.837 27.2746H110.296C110.429 27.2746 110.562 27.4077 110.562 27.5407L110.163 29.0043C110.163 29.1373 110.03 29.1373 109.897 29.1373H104.974L104.575 30.8669H110.296C110.562 30.8669 110.828 30.7339 111.095 30.6008L111.494 30.2017C111.627 30.0686 111.76 29.9356 111.76 29.6695L112.292 27.1416C112.425 26.7425 112.292 26.4764 112.026 26.2103C111.893 26.0772 111.627 25.9442 111.228 25.9442H107.901C107.768 25.9442 107.635 25.8111 107.635 25.6781L107.901 24.3476C107.901 24.2146 108.034 24.0815 108.167 24.0815H112.957L113.356 22.3519Z" fill="#2F318B"/>
<path d="M122.137 22.3519H116.283C116.017 22.3519 115.751 22.4849 115.485 22.751C115.086 23.1502 114.953 23.6824 114.82 24.2146L114.554 26.0772C114.554 26.4764 114.687 26.8755 114.953 27.0086C115.086 27.1416 115.352 27.2746 115.618 27.2746H119.077C119.21 27.2746 119.343 27.4077 119.343 27.5407L118.944 29.0043C118.944 29.1373 118.811 29.1373 118.678 29.1373H113.888L113.489 30.8669H119.21C119.476 30.8669 119.742 30.7339 120.009 30.6008L120.408 30.2017C120.541 30.0686 120.674 29.9356 120.674 29.6695L121.206 27.1416C121.339 26.7425 121.206 26.4764 120.94 26.2103C120.807 26.0772 120.541 25.9442 120.142 25.9442H116.815C116.682 25.9442 116.549 25.8111 116.549 25.6781L116.815 24.3476C116.815 24.2146 116.948 24.0815 117.082 24.0815H121.871L122.137 22.3519Z" fill="#2F318B"/>
<path d="M95.2614 22.7511C94.9953 22.485 94.7292 22.2189 94.3301 22.2189H89.0082L87.1455 30.7339H88.8751L89.5404 27.6739H92.8665L92.3344 30.7339H94.197L94.7292 27.6739C94.7292 27.4078 94.5962 27.1417 94.3301 27.0086L93.9309 26.8756L94.5962 26.3434C94.9953 26.0773 95.1283 25.6781 95.2614 25.279L95.5275 23.5494C95.5275 23.2833 95.5275 23.0172 95.2614 22.7511ZM93.1326 26.3434H89.9395L90.3386 24.0816H93.5318L93.1326 26.3434Z" fill="#2F318B"/>
</svg>
