<svg width="20" height="20" viewBox="0 0 20 20" fill="none" xmlns="http://www.w3.org/2000/svg">
<path d="M10.0003 3.33332C9.54009 3.33332 9.16699 3.70642 9.16699 4.16666C9.16699 5.57687 7.46198 6.28311 6.46481 5.28594C6.13937 4.9605 5.61174 4.9605 5.2863 5.28594C4.96086 5.61137 4.96086 6.13901 5.2863 6.46445C6.28351 7.46166 5.57718 9.16666 4.16699 9.16666C3.70675 9.16666 3.33366 9.53975 3.33366 9.99999C3.33366 10.4602 3.70675 10.8333 4.16699 10.8333C5.57729 10.8333 6.28336 12.5384 5.28625 13.5355C4.96081 13.861 4.96081 14.3886 5.28625 14.714C5.61168 15.0395 6.13932 15.0395 6.46476 14.714C7.46191 13.7169 9.16699 14.423 9.16699 15.8333C9.16699 16.2936 9.54009 16.6667 10.0003 16.6667C10.4606 16.6667 10.8337 16.2936 10.8337 15.8333C10.8337 14.4231 12.5387 13.7168 13.5359 14.714C13.8613 15.0395 14.389 15.0395 14.7144 14.714C15.0398 14.3886 15.0398 13.861 14.7144 13.5355C13.7172 12.5384 14.4234 10.8333 15.8337 10.8333C16.2939 10.8333 16.667 10.4602 16.667 9.99999C16.667 9.53975 16.2939 9.16666 15.8337 9.16666C14.4235 9.16666 13.7171 7.4617 14.7143 6.46446C15.0398 6.13902 15.0398 5.61139 14.7143 5.28595C14.3889 4.96051 13.8613 4.96051 13.5358 5.28595C12.5386 6.28315 10.8337 5.57682 10.8337 4.16666C10.8337 3.70642 10.4606 3.33332 10.0003 3.33332ZM7.50713 3.98085C7.60219 2.68691 8.68211 1.66666 10.0003 1.66666C11.3185 1.66666 12.3985 2.68691 12.4935 3.98085C13.4757 3.13313 14.9607 3.17533 15.8928 4.10744C16.825 5.03956 16.8672 6.52461 16.0194 7.50679C17.3134 7.60183 18.3337 8.68176 18.3337 9.99999C18.3337 11.3182 17.3134 12.3981 16.0195 12.4932C16.8672 13.4754 16.825 14.9604 15.8929 15.8925C14.9608 16.8247 13.4757 16.8668 12.4935 16.0191C12.3985 17.313 11.3186 18.3333 10.0003 18.3333C8.6821 18.3333 7.60217 17.3131 7.50712 16.0191C6.52495 16.8669 5.03987 16.8247 4.10774 15.8926C3.17561 14.9604 3.13342 13.4754 3.98118 12.4932C2.68724 12.3981 1.66699 11.3182 1.66699 9.99999C1.66699 8.68176 2.68727 7.60183 3.98123 7.50679C3.13348 6.52461 3.17566 5.03955 4.10779 4.10743C5.03991 3.17531 6.52495 3.13312 7.50713 3.98085Z" fill="#7E8998"/>
<path d="M10.0003 8.33332C9.5583 8.33332 9.13437 8.50892 8.82181 8.82148C8.50925 9.13404 8.33366 9.55796 8.33366 9.99999C8.33366 10.442 8.50925 10.8659 8.82181 11.1785C9.13437 11.4911 9.5583 11.6667 10.0003 11.6667C10.4424 11.6667 10.8663 11.4911 11.1788 11.1785C11.4914 10.8659 11.667 10.442 11.667 9.99999C11.667 9.55796 11.4914 9.13404 11.1788 8.82148C10.8663 8.50892 10.4424 8.33332 10.0003 8.33332ZM7.6433 7.64297C8.26842 7.01785 9.11627 6.66666 10.0003 6.66666C10.8844 6.66666 11.7322 7.01785 12.3573 7.64297C12.9825 8.26809 13.3337 9.11594 13.3337 9.99999C13.3337 10.884 12.9825 11.7319 12.3573 12.357C11.7322 12.9821 10.8844 13.3333 10.0003 13.3333C9.11627 13.3333 8.26842 12.9821 7.6433 12.357C7.01818 11.7319 6.66699 10.884 6.66699 9.99999C6.66699 9.11594 7.01818 8.26809 7.6433 7.64297Z" fill="#7E8998"/>
</svg>
