<svg width="14" height="18" viewBox="0 0 14 18" fill="none" xmlns="http://www.w3.org/2000/svg">
<path d="M3.66634 13.1667C3.50152 13.1667 3.34041 13.2155 3.20337 13.3071C3.06632 13.3987 2.95951 13.5288 2.89644 13.6811C2.83337 13.8334 2.81687 14.0009 2.84902 14.1626C2.88117 14.3242 2.96054 14.4727 3.07709 14.5892C3.19363 14.7058 3.34211 14.7852 3.50377 14.8173C3.66542 14.8495 3.83297 14.833 3.98524 14.7699C4.13752 14.7068 4.26766 14.6 4.35923 14.463C4.4508 14.3259 4.49967 14.1648 4.49967 14C4.49967 13.779 4.41188 13.567 4.2556 13.4107C4.09932 13.2545 3.88735 13.1667 3.66634 13.1667ZM3.66634 8.16666C3.50152 8.16666 3.34041 8.21553 3.20337 8.3071C3.06632 8.39867 2.95951 8.52882 2.89644 8.68109C2.83337 8.83336 2.81687 9.00091 2.84902 9.16257C2.88117 9.32422 2.96054 9.4727 3.07709 9.58925C3.19363 9.70579 3.34211 9.78516 3.50377 9.81731C3.66542 9.84947 3.83297 9.83296 3.98524 9.76989C4.13752 9.70682 4.26766 9.60001 4.35923 9.46297C4.4508 9.32592 4.49967 9.16481 4.49967 8.99999C4.49967 8.77898 4.41188 8.56702 4.2556 8.41073C4.09932 8.25445 3.88735 8.16666 3.66634 8.16666ZM10.333 0.666656H3.66634C2.78229 0.666656 1.93444 1.01785 1.30932 1.64297C0.684197 2.26809 0.333008 3.11593 0.333008 3.99999V14C0.333008 14.884 0.684197 15.7319 1.30932 16.357C1.93444 16.9821 2.78229 17.3333 3.66634 17.3333H10.333C11.2171 17.3333 12.0649 16.9821 12.69 16.357C13.3152 15.7319 13.6663 14.884 13.6663 14V3.99999C13.6663 3.11593 13.3152 2.26809 12.69 1.64297C12.0649 1.01785 11.2171 0.666656 10.333 0.666656ZM11.9997 14C11.9997 14.442 11.8241 14.8659 11.5115 15.1785C11.199 15.4911 10.775 15.6667 10.333 15.6667H3.66634C3.22431 15.6667 2.80039 15.4911 2.48783 15.1785C2.17527 14.8659 1.99967 14.442 1.99967 14V11.8667C2.503 12.1696 3.07887 12.3309 3.66634 12.3333H10.333C10.9205 12.3309 11.4963 12.1696 11.9997 11.8667V14ZM11.9997 8.99999C11.9997 9.44202 11.8241 9.86594 11.5115 10.1785C11.199 10.4911 10.775 10.6667 10.333 10.6667H3.66634C3.22431 10.6667 2.80039 10.4911 2.48783 10.1785C2.17527 9.86594 1.99967 9.44202 1.99967 8.99999V6.86666C2.503 7.16962 3.07887 7.33086 3.66634 7.33332H10.333C10.9205 7.33086 11.4963 7.16962 11.9997 6.86666V8.99999ZM10.333 5.66666H3.66634C3.22431 5.66666 2.80039 5.49106 2.48783 5.1785C2.17527 4.86594 1.99967 4.44202 1.99967 3.99999C1.99967 3.55796 2.17527 3.13404 2.48783 2.82148C2.80039 2.50892 3.22431 2.33332 3.66634 2.33332H10.333C10.775 2.33332 11.199 2.50892 11.5115 2.82148C11.8241 3.13404 11.9997 3.55796 11.9997 3.99999C11.9997 4.44202 11.8241 4.86594 11.5115 5.1785C11.199 5.49106 10.775 5.66666 10.333 5.66666Z" fill="#191DCC"/>
</svg>
