<svg width="20" height="20" viewBox="0 0 20 20" fill="none" xmlns="http://www.w3.org/2000/svg">
<path d="M18.2669 5.51667C18.1824 5.31304 18.0206 5.15123 17.8169 5.06667C17.7168 5.02397 17.6092 5.00132 17.5003 5H13.3336C13.1126 5 12.9006 5.0878 12.7444 5.24408C12.5881 5.40036 12.5003 5.61232 12.5003 5.83333C12.5003 6.05435 12.5881 6.26631 12.7444 6.42259C12.9006 6.57887 13.1126 6.66667 13.3336 6.66667H15.4919L10.8336 11.325L8.09194 8.575C8.01447 8.49689 7.9223 8.4349 7.82075 8.39259C7.71921 8.35028 7.61028 8.3285 7.50027 8.3285C7.39026 8.3285 7.28134 8.35028 7.17979 8.39259C7.07824 8.4349 6.98608 8.49689 6.90861 8.575L1.90861 13.575C1.8305 13.6525 1.76851 13.7446 1.7262 13.8462C1.68389 13.9477 1.66211 14.0567 1.66211 14.1667C1.66211 14.2767 1.68389 14.3856 1.7262 14.4871C1.76851 14.5887 1.8305 14.6809 1.90861 14.7583C1.98608 14.8364 2.07824 14.8984 2.17979 14.9407C2.28134 14.983 2.39026 15.0048 2.50027 15.0048C2.61028 15.0048 2.71921 14.983 2.82076 14.9407C2.9223 14.8984 3.01447 14.8364 3.09194 14.7583L7.50027 10.3417L10.2419 13.0917C10.3194 13.1698 10.4116 13.2318 10.5131 13.2741C10.6147 13.3164 10.7236 13.3382 10.8336 13.3382C10.9436 13.3382 11.0525 13.3164 11.1541 13.2741C11.2556 13.2318 11.3478 13.1698 11.4253 13.0917L16.6669 7.84167V10C16.6669 10.221 16.7547 10.433 16.911 10.5893C17.0673 10.7455 17.2793 10.8333 17.5003 10.8333C17.7213 10.8333 17.9332 10.7455 18.0895 10.5893C18.2458 10.433 18.3336 10.221 18.3336 10V5.83333C18.3323 5.72444 18.3096 5.61685 18.2669 5.51667Z" fill="white"/>
</svg>
